<?xml version="1.0" encoding="utf-8"?>
<!-- Generator: Adobe Illustrator 23.0.1, SVG Export Plug-In . SVG Version: 6.00 Build 0)  -->
<svg version="1.1" id="Calque_1" xmlns="http://www.w3.org/2000/svg" xmlns:xlink="http://www.w3.org/1999/xlink" x="0px" y="0px"
	 viewBox="0 0 173 45" style="enable-background:new 0 0 173 45;" xml:space="preserve">
<style type="text/css">
	.st0{enable-background:new    ;}
	.st1{fill:#3C3C3C;}
</style>
<g id="Logo" transform="translate(1 1)">
	<g class="st0">
		<path class="st1" d="M11.3,30V11.5h7.8c0.8,0,1.5,0.2,2.2,0.5c0.7,0.3,1.2,0.8,1.7,1.3c0.5,0.5,0.9,1.2,1.1,1.9
			c0.3,0.7,0.4,1.4,0.4,2.1c0,0.7-0.1,1.3-0.3,1.9s-0.5,1.2-0.8,1.7c-0.4,0.5-0.8,0.9-1.3,1.2c-0.5,0.3-1.1,0.6-1.7,0.7L25,30h-2.1
			l-4.3-6.8h-5.5V30H11.3z M13.1,21.6h6c0.5,0,1-0.1,1.5-0.4c0.4-0.2,0.8-0.5,1.1-0.9s0.6-0.8,0.7-1.4c0.2-0.5,0.3-1,0.3-1.6
			s-0.1-1.1-0.3-1.6c-0.2-0.5-0.5-1-0.8-1.3c-0.3-0.4-0.7-0.7-1.2-0.9c-0.5-0.2-0.9-0.3-1.4-0.3h-5.9V21.6z"/>
		<path class="st1" d="M42,28.4V30H29.6V11.5h12.2v1.6H31.4v6.7h9v1.5h-9v7H42z"/>
		<path class="st1" d="M52.4,11.5H54L61.6,30h-1.9l-2.4-5.8H49L46.7,30h-2L52.4,11.5z M56.9,22.8l-3.7-9.1l-3.8,9.1H56.9z"/>
		<path class="st1" d="M65.6,30V11.5h1.8v16.8h10.7V30H65.6z"/>
	</g>
	<g class="st0">
		<path class="st1" d="M97.2,11.5V30h-3.6v-7.9h-8.4V30h-3.6V11.5h3.6V19h8.4v-7.5H97.2z"/>
		<path class="st1" d="M110.2,30.1c-1.4,0-2.6-0.3-3.7-0.8c-1.1-0.5-2-1.2-2.8-2.1c-0.8-0.9-1.4-1.9-1.8-3c-0.4-1.1-0.6-2.3-0.6-3.5
			c0-1.2,0.2-2.4,0.7-3.5s1.1-2.1,1.9-3c0.8-0.9,1.8-1.6,2.9-2.1c1.1-0.5,2.3-0.8,3.6-0.8c1.3,0,2.6,0.3,3.7,0.8
			c1.1,0.5,2,1.3,2.8,2.1c0.8,0.9,1.4,1.9,1.8,3c0.4,1.1,0.7,2.3,0.7,3.4c0,1.2-0.2,2.4-0.7,3.5c-0.5,1.1-1.1,2.1-1.9,3
			c-0.8,0.9-1.8,1.5-2.9,2.1C112.7,29.9,111.5,30.1,110.2,30.1z M104.9,20.8c0,0.8,0.1,1.6,0.4,2.3c0.2,0.7,0.6,1.4,1.1,2
			c0.5,0.6,1,1,1.7,1.4c0.7,0.3,1.4,0.5,2.3,0.5c0.9,0,1.6-0.2,2.3-0.5c0.7-0.4,1.2-0.8,1.7-1.4c0.5-0.6,0.8-1.3,1-2
			c0.2-0.7,0.4-1.5,0.4-2.2c0-0.8-0.1-1.6-0.4-2.3s-0.6-1.4-1.1-2c-0.5-0.6-1-1-1.7-1.4s-1.4-0.5-2.2-0.5c-0.9,0-1.6,0.2-2.3,0.5
			c-0.7,0.4-1.2,0.8-1.7,1.4c-0.5,0.6-0.8,1.2-1,2C105,19.3,104.9,20,104.9,20.8z"/>
		<path class="st1" d="M138.3,30V17.8l-4.8,9.1h-2l-4.8-9.1V30h-3.6V11.5h3.8l5.5,10.5l5.5-10.5h3.8V30H138.3z"/>
		<path class="st1" d="M159.9,26.9V30h-12.8V11.5h12.6v3.1h-9v4.4h7.8V22h-7.8v4.8H159.9z"/>
	</g>
	<g id="Groupe_1">
		<g id="Tracé_2">
			<polygon class="st1" points="10,44 -1,44 -1,33 1,33 1,42 10,42 			"/>
		</g>
		<g id="Tracé_3">
			<polygon class="st1" points="1,10 -1,10 -1,-1 10,-1 10,1 1,1 			"/>
		</g>
		<g id="Tracé_4">
			<polygon class="st1" points="172,10 170,10 170,1 161,1 161,-1 172,-1 			"/>
		</g>
		<g id="Tracé_5">
			<polygon class="st1" points="172,44 161,44 161,42 170,42 170,33 172,33 			"/>
		</g>
	</g>
</g>
</svg>
